PathFileType	4	(X/Y/Z)	./resultDataOpenSim/trcMotMarkerGrf/sub09/qtm-02-03.trc
DataRate	CameraRate	NumFrames	NumMarkers	Units	OrigDataRate	OrigDataStartFrame	OrigNumFrames
250.000000	250.000000	6	24	m	250.000000	414	472
Frame#	Time	L.Toe.Tip			R.Toe.Tip			L.Ankle.Lat			R.Ankle.Lat			L.Ankle.Med			R.Ankle.Med			L.Heel			R.Heel			L.Knee.Lat			R.Knee.Lat			L.Knee.Med			R.Knee.Med			L.Thigh.Upper			R.Thigh.Upper			L.ASIS			R.ASIS			V.Sacral			L.Acromium			R.Acromium			C7			L.Elbow			R.Elbow			L.Wrist.Lat			R.Wrist.Lat
		X1	Y1	Z1	X2	Y2	Z2	X3	Y3	Z3	X4	Y4	Z4	X5	Y5	Z5	X6	Y6	Z6	X7	Y7	Z7	X8	Y8	Z8	X9	Y9	Z9	X10	Y10	Z10	X11	Y11	Z11	X12	Y12	Z12	X13	Y13	Z13	X14	Y14	Z14	X15	Y15	Z15	X16	Y16	Z16	X17	Y17	Z17	X18	Y18	Z18	X19	Y19	Z19	X20	Y20	Z20	X21	Y21	Z21	X22	Y22	Z22	X23	Y23	Z23	X24	Y24	Z24

414	1.652	1.7509699	0.1334371	-0.025698958	1.0478819	0.039422389	0.093265252	1.6013658	0.096448557	-0.06030403	0.90847366	0.087842961	0.12327061	1.6189548	0.12575912	0.031720283	0.93488388	0.12459254	0.035228219	1.5580038	0.03184254	-0.010940658	0.83934146	0.08715748	0.07000426	1.4435446	0.48467276	-0.093571789	1.1429249	0.49384286	0.19958067	1.4442843	0.47555588	0.033587593	1.1267491	0.48435114	0.068120187	1.2651005	0.85797484	-0.12585981	1.209915	0.88913351	0.24188866	1.3314993	0.95250963	-0.062770998	1.3191658	0.96749119	0.17822004	1.1560101	1.008385	0.037956686	1.2876684	1.411282	-0.12589677	1.2788205	1.4262737	0.20538623	1.2175318	1.4658182	0.039354662	1.1234128	1.081892	-0.17675809	1.1630983	1.0746817	0.30479707	1.2219472	0.84386251	-0.2319983	1.3675425	0.88532238	0.29916312
415	1.656	1.7555996	0.13071184	-0.025473934	1.0480582	0.039513714	0.093371054	1.606021	0.094548724	-0.060256275	0.90927232	0.089475301	0.12401897	1.6236895	0.12407051	0.031918726	0.93606525	0.12588561	0.035888142	1.562128	0.030397545	-0.010452952	0.84019025	0.089469695	0.070746274	1.4506024	0.48411644	-0.093747511	1.1498321	0.49302446	0.19945233	1.4519233	0.47520417	0.033429248	1.1323254	0.48326792	0.068449737	1.2717908	0.85690231	-0.12632918	1.215865	0.88814161	0.24135406	1.3377773	0.95130021	-0.063183139	1.3254007	0.96636221	0.17783649	1.1622241	1.0071909	0.037358218	1.2934276	1.4102728	-0.12630523	1.2843332	1.4251018	0.20499432	1.2231191	1.464654	0.03892785	1.1294097	1.0807641	-0.17727458	1.1685333	1.0733802	0.30389784	1.2280077	0.84274756	-0.23233443	1.3728945	0.88382622	0.2991767
416	1.66	1.7598101	0.12737789	-0.025152963	1.0482685	0.039639323	0.09350561	1.6100475	0.09252661	-0.06023434	0.91020023	0.091136434	0.12479208	1.6278807	0.12204271	0.032083669	0.93731566	0.12724305	0.036605565	1.565524	0.028829725	-0.01023569	0.84110593	0.091909745	0.07156248	1.4576966	0.4835609	-0.093826583	1.1579724	0.49234642	0.19903349	1.4596923	0.47495279	0.033306043	1.1380428	0.48212513	0.068809079	1.2783851	0.85594788	-0.12689666	1.2219293	0.88711504	0.24081997	1.344115	0.95016166	-0.063636866	1.331691	0.96520779	0.17743879	1.1685154	1.0060047	0.036788961	1.2992083	1.4092765	-0.12671938	1.289871	1.4239266	0.20460235	1.2287031	1.4635161	0.038489454	1.1354428	1.0796354	-0.177812	1.1740238	1.0721029	0.30299458	1.2341291	0.84164619	-0.23265552	1.3782143	0.88232101	0.29918622
417	1.664	1.7636181	0.12356184	-0.024727751	1.0485168	0.039795015	0.093685483	1.6135327	0.090405966	-0.060240642	0.9112544	0.092827317	0.12557663	1.6315297	0.1197121	0.032211161	0.93864503	0.1286698	0.037370483	1.5682595	0.027161557	-0.010288231	0.84210218	0.094485527	0.072437548	1.4648294	0.48301063	-0.093815591	1.1666719	0.49173705	0.19849177	1.4675126	0.47477371	0.033216588	1.1439019	0.48093122	0.069199754	1.2848828	0.85512314	-0.12754456	1.2280725	0.88605673	0.2402844	1.3505139	0.94911042	-0.064135881	1.3380487	0.96403048	0.17703259	1.1748655	1.0048284	0.036214412	1.3050029	1.4082932	-0.12714296	1.2954223	1.4227563	0.2042104	1.2342334	1.4624101	0.037992998	1.141499	1.0785066	-0.17837205	1.1795743	1.0708522	0.3020907	1.240312	0.84055776	-0.23295932	1.3835162	0.88081339	0.29919331
418	1.668	1.7670042	0.11937928	-0.024171252	1.048789	0.039962602	0.09391306	1.6165895	0.088172836	-0.060291674	0.91241538	0.094573915	0.12637766	1.6346392	0.11712131	0.032314051	0.94007371	0.13017023	0.038169923	1.5703775	0.025458262	-0.010568042	0.84319802	0.097198499	0.073336509	1.4720854	0.48246848	-0.093785886	1.1748803	0.49102836	0.19814535	1.4753155	0.47463771	0.033149902	1.1499074	0.47969331	0.069633152	1.2912856	0.85442409	-0.12825205	1.2342737	0.88496771	0.23974984	1.3569764	0.9481543	-0.064682455	1.3444718	0.96283986	0.176614	1.1812458	1.0036593	0.035610071	1.3108078	1.4073246	-0.12757957	1.3009869	1.4215939	0.20381582	1.2396917	1.4613303	0.037409404	1.1475598	1.0773785	-0.17895477	1.185139	1.069616	0.3011741	1.2465525	0.83948232	-0.23325085	1.3887951	0.87930637	0.2992072
419	1.672	1.7699655	0.11490085	-0.023476983	1.0490653	0.040126429	0.09415785	1.6192985	0.085799682	-0.060351127	0.91369415	0.096384033	0.12721354	1.6372444	0.11433454	0.032444343	0.94162586	0.13175097	0.038999503	1.5719107	0.023810787	-0.010979332	0.84441285	0.10004865	0.074227028	1.479532	0.4819182	-0.093809531	1.1820561	0.49010438	0.19819478	1.48303	0.47451409	0.033080625	1.1560689	0.4784147	0.070141528	1.2975888	0.85382824	-0.12900087	1.2405374	0.88384864	0.23922361	1.3635051	0.94729474	-0.065271228	1.3509424	0.96164737	0.17617358	1.1876503	1.0024928	0.034993721	1.3166207	1.4063744	-0.12802628	1.3065786	1.420434	0.20341335	1.2451529	1.4602493	0.036809501	1.1536239	1.0762578	-0.17956211	1.1906668	1.0683819	0.30022646	1.2528472	0.83842228	-0.23353771	1.3940275	0.87779642	0.29923899
